<svg width="204" height="196" viewBox="0 0 204 196" fill="none" xmlns="http://www.w3.org/2000/svg">
<g filter="url(#filter0_d)">
<circle cx="101.5" cy="98.5" r="72.5" fill="white"/>
<mask id="path-2-outside-1" maskUnits="userSpaceOnUse" x="91" y="16" width="91" height="73" fill="black">
<rect fill="white" x="91" y="16" width="91" height="73"/>
<path d="M101.461 26C116.039 26 130.277 30.3967 142.317 38.6158C154.356 46.8348 163.637 58.494 168.946 72.0702L161.079 75.1465C156.389 63.1529 148.19 52.8528 137.554 45.5918C126.918 38.3308 114.34 34.4466 101.461 34.4466V26Z"/>
</mask>
<path d="M101.461 26C116.039 26 130.277 30.3967 142.317 38.6158C154.356 46.8348 163.637 58.494 168.946 72.0702L161.079 75.1465C156.389 63.1529 148.19 52.8528 137.554 45.5918C126.918 38.3308 114.34 34.4466 101.461 34.4466V26Z" fill="#529334"/>
<path d="M101.461 26C116.039 26 130.277 30.3967 142.317 38.6158C154.356 46.8348 163.637 58.494 168.946 72.0702L161.079 75.1465C156.389 63.1529 148.19 52.8528 137.554 45.5918C126.918 38.3308 114.34 34.4466 101.461 34.4466V26Z" stroke="white" stroke-width="20" mask="url(#path-2-outside-1)"/>
<mask id="path-3-outside-2" maskUnits="userSpaceOnUse" x="131" y="59" width="53" height="106" fill="black">
<rect fill="white" x="131" y="59" width="53" height="106"/>
<path d="M168.946 72.0702C174.141 85.3533 175.3 99.874 172.278 113.813C169.256 127.752 162.188 140.489 151.959 150.429L146.073 144.371C155.11 135.59 161.354 124.338 164.023 112.023C166.693 99.7093 165.669 86.8812 161.079 75.1465L168.946 72.0702Z"/>
</mask>
<path d="M168.946 72.0702C174.141 85.3533 175.3 99.874 172.278 113.813C169.256 127.752 162.188 140.489 151.959 150.429L146.073 144.371C155.11 135.59 161.354 124.338 164.023 112.023C166.693 99.7093 165.669 86.8812 161.079 75.1465L168.946 72.0702Z" fill="#FF4C26"/>
<path d="M168.946 72.0702C174.141 85.3533 175.3 99.874 172.278 113.813C169.256 127.752 162.188 140.489 151.959 150.429L146.073 144.371C155.11 135.59 161.354 124.338 164.023 112.023C166.693 99.7093 165.669 86.8812 161.079 75.1465L168.946 72.0702Z" stroke="white" stroke-width="20" mask="url(#path-3-outside-2)"/>
<mask id="path-4-outside-3" maskUnits="userSpaceOnUse" x="62" y="130" width="105" height="51" fill="black">
<rect fill="white" x="62" y="130" width="105" height="51"/>
<path d="M151.959 150.429C142.069 160.04 129.641 166.629 116.135 169.422C102.63 172.214 88.6078 171.095 75.7164 166.195L78.7174 158.3C90.1061 162.628 102.494 163.617 114.425 161.15C126.356 158.683 137.335 152.862 146.073 144.371L151.959 150.429Z"/>
</mask>
<path d="M151.959 150.429C142.069 160.04 129.641 166.629 116.135 169.422C102.63 172.214 88.6078 171.095 75.7164 166.195L78.7174 158.3C90.1061 162.628 102.494 163.617 114.425 161.15C126.356 158.683 137.335 152.862 146.073 144.371L151.959 150.429Z" fill="#B163AD"/>
<path d="M151.959 150.429C142.069 160.04 129.641 166.629 116.135 169.422C102.63 172.214 88.6078 171.095 75.7164 166.195L78.7174 158.3C90.1061 162.628 102.494 163.617 114.425 161.15C126.356 158.683 137.335 152.862 146.073 144.371L151.959 150.429Z" stroke="white" stroke-width="20" mask="url(#path-4-outside-3)"/>
<mask id="path-5-outside-4" maskUnits="userSpaceOnUse" x="21" y="109" width="71" height="71" fill="black">
<rect fill="white" x="21" y="109" width="71" height="71"/>
<path d="M75.7164 166.195C66.331 162.628 57.7893 157.149 50.6332 150.106C43.4771 143.063 37.8628 134.61 34.1464 125.282L41.9931 122.156C45.2763 130.396 50.2362 137.864 56.5581 144.086C62.88 150.308 70.426 155.148 78.7174 158.3L75.7164 166.195Z"/>
</mask>
<path d="M75.7164 166.195C66.331 162.628 57.7893 157.149 50.6332 150.106C43.4771 143.063 37.8628 134.61 34.1464 125.282L41.9931 122.156C45.2763 130.396 50.2362 137.864 56.5581 144.086C62.88 150.308 70.426 155.148 78.7174 158.3L75.7164 166.195Z" fill="#CE765F"/>
<path d="M75.7164 166.195C66.331 162.628 57.7893 157.149 50.6332 150.106C43.4771 143.063 37.8628 134.61 34.1464 125.282L41.9931 122.156C45.2763 130.396 50.2362 137.864 56.5581 144.086C62.88 150.308 70.426 155.148 78.7174 158.3L75.7164 166.195Z" stroke="white" stroke-width="20" mask="url(#path-5-outside-4)"/>
<mask id="path-6-outside-5" maskUnits="userSpaceOnUse" x="19" y="60" width="36" height="79" fill="black">
<rect fill="white" x="19" y="60" width="36" height="79"/>
<path d="M34.1464 125.282C27.5794 108.8 27.2876 90.4816 33.3262 73.7987L41.2685 76.6736C35.9338 91.4118 36.1916 107.595 41.9931 122.156L34.1464 125.282Z"/>
</mask>
<path d="M34.1464 125.282C27.5794 108.8 27.2876 90.4816 33.3262 73.7987L41.2685 76.6736C35.9338 91.4118 36.1916 107.595 41.9931 122.156L34.1464 125.282Z" fill="#00999B"/>
<path d="M34.1464 125.282C27.5794 108.8 27.2876 90.4816 33.3262 73.7987L41.2685 76.6736C35.9338 91.4118 36.1916 107.595 41.9931 122.156L34.1464 125.282Z" stroke="white" stroke-width="20" mask="url(#path-6-outside-5)"/>
<mask id="path-7-outside-6" maskUnits="userSpaceOnUse" x="20" y="22" width="63" height="68" fill="black">
<rect fill="white" x="20" y="22" width="63" height="68"/>
<path d="M33.3262 73.7987C39.0405 58.012 50.0593 44.6994 64.5001 36.1355L68.8085 43.4007C56.0511 50.9663 46.3167 62.727 41.2685 76.6736L33.3262 73.7987Z"/>
</mask>
<path d="M33.3262 73.7987C39.0405 58.012 50.0593 44.6994 64.5001 36.1355L68.8085 43.4007C56.0511 50.9663 46.3167 62.727 41.2685 76.6736L33.3262 73.7987Z" fill="#9A886F"/>
<path d="M33.3262 73.7987C39.0405 58.012 50.0593 44.6994 64.5001 36.1355L68.8085 43.4007C56.0511 50.9663 46.3167 62.727 41.2685 76.6736L33.3262 73.7987Z" stroke="white" stroke-width="20" mask="url(#path-7-outside-6)"/>
<mask id="path-8-outside-7" maskUnits="userSpaceOnUse" x="50" y="16" width="62" height="42" fill="black">
<rect fill="white" x="50" y="16" width="62" height="42"/>
<path d="M64.5001 36.1355C75.6876 29.501 88.4546 26 101.461 26V34.4466C89.9708 34.4466 78.6919 37.5395 68.8085 43.4007L64.5001 36.1355Z"/>
</mask>
<path d="M64.5001 36.1355C75.6876 29.501 88.4546 26 101.461 26V34.4466C89.9708 34.4466 78.6919 37.5395 68.8085 43.4007L64.5001 36.1355Z" fill="#007594"/>
<path d="M64.5001 36.1355C75.6876 29.501 88.4546 26 101.461 26V34.4466C89.9708 34.4466 78.6919 37.5395 68.8085 43.4007L64.5001 36.1355Z" stroke="white" stroke-width="20" mask="url(#path-8-outside-7)"/>
<g clip-path="url(#clip0)">
<path d="M116.48 58.9791L119.814 69.3828C115.92 66.6854 111.485 64.8693 106.818 64.0612C102.15 63.253 97.3629 63.4722 92.7888 64.7035C77.3675 68.8356 67.4946 83.3445 68.662 98.714C68.6803 98.9453 68.7493 99.1698 68.8641 99.3716C68.979 99.5733 69.1368 99.7472 69.3263 99.8811C69.5159 100.015 69.7326 100.106 69.9611 100.146C70.1896 100.187 70.4243 100.177 70.6485 100.117L76.8947 98.4434C77.2389 98.3508 77.5418 98.1446 77.7542 97.8583C77.9665 97.572 78.076 97.2223 78.0648 96.866C77.9507 92.3654 79.149 87.929 81.5135 84.0979C83.8779 80.2668 87.3064 77.2068 91.3805 75.2911C95.4546 73.3755 99.9982 72.6871 104.457 73.3099C108.916 73.9327 113.097 75.8398 116.49 78.7985L103.404 81.6416C103.194 81.6871 102.997 81.7747 102.822 81.8991C102.648 82.0234 102.5 82.1818 102.389 82.3648C102.277 82.5478 102.204 82.7516 102.174 82.9636C102.144 83.1757 102.157 83.3917 102.213 83.5986L103.83 89.636C103.939 90.0413 104.204 90.3868 104.567 90.5966C104.931 90.8064 105.363 90.8632 105.768 90.7546L131.265 83.9228C131.67 83.8142 132.015 83.5491 132.225 83.1857C132.435 82.8223 132.492 82.3905 132.383 81.9852L125.547 56.4719C125.438 56.0666 125.173 55.7211 124.81 55.5113C124.446 55.3015 124.015 55.2446 123.609 55.3532L117.577 56.9696C117.37 57.0251 117.177 57.1219 117.009 57.2543C116.841 57.3867 116.701 57.5518 116.599 57.7396C116.496 57.9275 116.433 58.1342 116.412 58.3472C116.392 58.5603 116.415 58.7752 116.48 58.9791ZM107.256 118.697C103.583 119.685 99.7224 119.752 96.0166 118.893C92.3108 118.034 88.8738 116.275 86.0096 113.772L99.1393 110.918C99.3487 110.873 99.5465 110.785 99.721 110.661C99.8955 110.536 100.043 110.378 100.154 110.195C100.266 110.012 100.339 109.808 100.369 109.596C100.399 109.384 100.386 109.168 100.331 108.961L98.7132 102.925C98.6046 102.52 98.3395 102.174 97.9761 101.964C97.6127 101.755 97.1809 101.698 96.7756 101.806L71.2814 108.638C70.8761 108.746 70.5306 109.011 70.3208 109.375C70.111 109.738 70.0541 110.17 70.1627 110.575L76.9983 136.086C77.1069 136.491 77.3721 136.837 77.7354 137.047C78.0988 137.256 78.5306 137.313 78.9359 137.205L84.9656 135.589C85.173 135.534 85.3669 135.437 85.5356 135.304C85.7043 135.172 85.8443 135.006 85.947 134.818C86.0498 134.629 86.1131 134.422 86.1332 134.208C86.1533 133.995 86.1297 133.779 86.0638 133.575L82.7179 123.202C86.6093 125.892 91.0398 127.703 95.7016 128.509C100.363 129.314 105.145 129.095 109.713 127.866C125.136 123.733 135.009 109.225 133.841 93.8551C133.823 93.6237 133.754 93.3993 133.639 93.1975C133.524 92.9958 133.366 92.8219 133.177 92.688C132.987 92.5541 132.771 92.4635 132.542 92.4227C132.314 92.382 132.079 92.392 131.855 92.452L125.609 94.1257C125.264 94.2183 124.961 94.4245 124.749 94.7108C124.537 94.9971 124.427 95.3468 124.438 95.7031C124.573 100.909 122.951 106.008 119.834 110.179C116.717 114.35 112.287 117.351 107.256 118.697Z" fill="#00416F"/>
</g>
</g>
<defs>
<filter id="filter0_d" x="-2" y="0" width="208" height="200" filterUnits="userSpaceOnUse" color-interpolation-filters="sRGB">
<feFlood flood-opacity="0" result="BackgroundImageFix"/>
<feColorMatrix in="SourceAlpha" type="matrix" values="0 0 0 0 0 0 0 0 0 0 0 0 0 0 0 0 0 0 127 0" result="hardAlpha"/>
<feOffset dy="2"/>
<feGaussianBlur stdDeviation="1"/>
<feColorMatrix type="matrix" values="0 0 0 0 0 0 0 0 0 0 0 0 0 0 0 0 0 0 0.25 0"/>
<feBlend mode="normal" in2="BackgroundImageFix" result="effect1_dropShadow"/>
<feBlend mode="normal" in="SourceGraphic" in2="effect1_dropShadow" result="shape"/>
</filter>
<clipPath id="clip0">
<rect width="81" height="81" fill="white" transform="translate(51.6719 67.6406) rotate(-15)"/>
</clipPath>
</defs>
</svg>
