<svg width="204" height="196" viewBox="0 0 204 196" fill="none" xmlns="http://www.w3.org/2000/svg">
<g filter="url(#filter0_d)">
<path d="M88.7053 73.1209C87.8419 73.1225 86.9938 73.3488 86.2444 73.7776C84.5569 74.7338 83.5078 76.5901 83.5078 78.6052V119.386C83.5078 121.407 84.5569 123.258 86.2444 124.214C87.0116 124.655 87.8832 124.882 88.7681 124.871C89.653 124.86 90.5186 124.611 91.2745 124.151L126.128 103.288C126.855 102.832 127.454 102.2 127.869 101.45C128.284 100.699 128.502 99.856 128.502 98.9987C128.502 98.1413 128.284 97.298 127.869 96.5478C127.454 95.7976 126.855 95.1651 126.128 94.7096L91.2689 73.8409C90.4953 73.3732 89.6093 73.1243 88.7053 73.1209Z" fill="#00C2C3"/>
<path d="M88.7053 73.1209C87.8419 73.1225 86.9938 73.3488 86.2444 73.7776C84.5569 74.7338 83.5078 76.5901 83.5078 78.6052V119.386C83.5078 121.407 84.5569 123.258 86.2444 124.214C87.0116 124.655 87.8832 124.882 88.7681 124.871C89.653 124.86 90.5186 124.611 91.2745 124.151L126.128 103.288C126.855 102.832 127.454 102.2 127.869 101.45C128.284 100.699 128.502 99.856 128.502 98.9987C128.502 98.1413 128.284 97.298 127.869 96.5478C127.454 95.7976 126.855 95.1651 126.128 94.7096L91.2689 73.8409C90.4953 73.3732 89.6093 73.1243 88.7053 73.1209Z" stroke="#00C2C3"/>
</g>
<defs>
<filter id="filter0_d" x="-2" y="0" width="208" height="200" filterUnits="userSpaceOnUse" color-interpolation-filters="sRGB">
<feFlood flood-opacity="0" result="BackgroundImageFix"/>
<feColorMatrix in="SourceAlpha" type="matrix" values="0 0 0 0 0 0 0 0 0 0 0 0 0 0 0 0 0 0 127 0"/>
<feOffset dy="2"/>
<feGaussianBlur stdDeviation="1"/>
<feColorMatrix type="matrix" values="0 0 0 0 0 0 0 0 0 0 0 0 0 0 0 0 0 0 0.25 0"/>
<feBlend mode="normal" in2="BackgroundImageFix" result="effect1_dropShadow"/>
<feBlend mode="normal" in="SourceGraphic" in2="effect1_dropShadow" result="shape"/>
</filter>
</defs>
</svg>
