<svg width="204" height="196" viewBox="0 0 204 196" fill="none" xmlns="http://www.w3.org/2000/svg">
<g filter="url(#filter0_d)">
<circle cx="101.5" cy="98.5" r="72.5" fill="white"/>
<mask id="path-2-outside-1" maskUnits="userSpaceOnUse" x="91" y="16" width="91" height="73" fill="black">
<rect fill="white" x="91" y="16" width="91" height="73"/>
<path d="M101.461 26C116.039 26 130.277 30.3967 142.317 38.6158C154.356 46.8348 163.637 58.494 168.946 72.0702L161.079 75.1465C156.389 63.1529 148.19 52.8528 137.554 45.5918C126.918 38.3308 114.34 34.4466 101.461 34.4466V26Z"/>
</mask>
<path d="M101.461 26C116.039 26 130.277 30.3967 142.317 38.6158C154.356 46.8348 163.637 58.494 168.946 72.0702L161.079 75.1465C156.389 63.1529 148.19 52.8528 137.554 45.5918C126.918 38.3308 114.34 34.4466 101.461 34.4466V26Z" fill="#529334"/>
<path d="M101.461 26C116.039 26 130.277 30.3967 142.317 38.6158C154.356 46.8348 163.637 58.494 168.946 72.0702L161.079 75.1465C156.389 63.1529 148.19 52.8528 137.554 45.5918C126.918 38.3308 114.34 34.4466 101.461 34.4466V26Z" stroke="white" stroke-width="20" mask="url(#path-2-outside-1)"/>
<mask id="path-3-outside-2" maskUnits="userSpaceOnUse" x="131" y="59" width="53" height="106" fill="black">
<rect fill="white" x="131" y="59" width="53" height="106"/>
<path d="M168.946 72.0702C174.141 85.3533 175.3 99.874 172.278 113.813C169.256 127.752 162.188 140.489 151.959 150.429L146.073 144.371C155.11 135.59 161.354 124.338 164.023 112.023C166.693 99.7093 165.669 86.8812 161.079 75.1465L168.946 72.0702Z"/>
</mask>
<path d="M168.946 72.0702C174.141 85.3533 175.3 99.874 172.278 113.813C169.256 127.752 162.188 140.489 151.959 150.429L146.073 144.371C155.11 135.59 161.354 124.338 164.023 112.023C166.693 99.7093 165.669 86.8812 161.079 75.1465L168.946 72.0702Z" fill="#FF4C26"/>
<path d="M168.946 72.0702C174.141 85.3533 175.3 99.874 172.278 113.813C169.256 127.752 162.188 140.489 151.959 150.429L146.073 144.371C155.11 135.59 161.354 124.338 164.023 112.023C166.693 99.7093 165.669 86.8812 161.079 75.1465L168.946 72.0702Z" stroke="white" stroke-width="20" mask="url(#path-3-outside-2)"/>
<mask id="path-4-outside-3" maskUnits="userSpaceOnUse" x="62" y="130" width="105" height="51" fill="black">
<rect fill="white" x="62" y="130" width="105" height="51"/>
<path d="M151.959 150.429C142.069 160.04 129.641 166.629 116.135 169.422C102.63 172.214 88.6078 171.095 75.7164 166.195L78.7174 158.3C90.1061 162.628 102.494 163.617 114.425 161.15C126.356 158.683 137.335 152.862 146.073 144.371L151.959 150.429Z"/>
</mask>
<path d="M151.959 150.429C142.069 160.04 129.641 166.629 116.135 169.422C102.63 172.214 88.6078 171.095 75.7164 166.195L78.7174 158.3C90.1061 162.628 102.494 163.617 114.425 161.15C126.356 158.683 137.335 152.862 146.073 144.371L151.959 150.429Z" fill="#B163AD"/>
<path d="M151.959 150.429C142.069 160.04 129.641 166.629 116.135 169.422C102.63 172.214 88.6078 171.095 75.7164 166.195L78.7174 158.3C90.1061 162.628 102.494 163.617 114.425 161.15C126.356 158.683 137.335 152.862 146.073 144.371L151.959 150.429Z" stroke="white" stroke-width="20" mask="url(#path-4-outside-3)"/>
<mask id="path-5-outside-4" maskUnits="userSpaceOnUse" x="21" y="109" width="71" height="71" fill="black">
<rect fill="white" x="21" y="109" width="71" height="71"/>
<path d="M75.7164 166.195C66.331 162.628 57.7893 157.149 50.6332 150.106C43.4771 143.063 37.8628 134.61 34.1464 125.282L41.9931 122.156C45.2763 130.396 50.2362 137.864 56.5581 144.086C62.88 150.308 70.426 155.148 78.7174 158.3L75.7164 166.195Z"/>
</mask>
<path d="M75.7164 166.195C66.331 162.628 57.7893 157.149 50.6332 150.106C43.4771 143.063 37.8628 134.61 34.1464 125.282L41.9931 122.156C45.2763 130.396 50.2362 137.864 56.5581 144.086C62.88 150.308 70.426 155.148 78.7174 158.3L75.7164 166.195Z" fill="#CE765F"/>
<path d="M75.7164 166.195C66.331 162.628 57.7893 157.149 50.6332 150.106C43.4771 143.063 37.8628 134.61 34.1464 125.282L41.9931 122.156C45.2763 130.396 50.2362 137.864 56.5581 144.086C62.88 150.308 70.426 155.148 78.7174 158.3L75.7164 166.195Z" stroke="white" stroke-width="20" mask="url(#path-5-outside-4)"/>
<mask id="path-6-outside-5" maskUnits="userSpaceOnUse" x="19" y="60" width="36" height="79" fill="black">
<rect fill="white" x="19" y="60" width="36" height="79"/>
<path d="M34.1464 125.282C27.5794 108.8 27.2876 90.4816 33.3262 73.7987L41.2685 76.6736C35.9338 91.4118 36.1916 107.595 41.9931 122.156L34.1464 125.282Z"/>
</mask>
<path d="M34.1464 125.282C27.5794 108.8 27.2876 90.4816 33.3262 73.7987L41.2685 76.6736C35.9338 91.4118 36.1916 107.595 41.9931 122.156L34.1464 125.282Z" fill="#00999B"/>
<path d="M34.1464 125.282C27.5794 108.8 27.2876 90.4816 33.3262 73.7987L41.2685 76.6736C35.9338 91.4118 36.1916 107.595 41.9931 122.156L34.1464 125.282Z" stroke="white" stroke-width="20" mask="url(#path-6-outside-5)"/>
<mask id="path-7-outside-6" maskUnits="userSpaceOnUse" x="20" y="22" width="63" height="68" fill="black">
<rect fill="white" x="20" y="22" width="63" height="68"/>
<path d="M33.3262 73.7987C39.0405 58.012 50.0593 44.6994 64.5001 36.1355L68.8085 43.4007C56.0511 50.9663 46.3167 62.727 41.2685 76.6736L33.3262 73.7987Z"/>
</mask>
<path d="M33.3262 73.7987C39.0405 58.012 50.0593 44.6994 64.5001 36.1355L68.8085 43.4007C56.0511 50.9663 46.3167 62.727 41.2685 76.6736L33.3262 73.7987Z" fill="#9A886F"/>
<path d="M33.3262 73.7987C39.0405 58.012 50.0593 44.6994 64.5001 36.1355L68.8085 43.4007C56.0511 50.9663 46.3167 62.727 41.2685 76.6736L33.3262 73.7987Z" stroke="white" stroke-width="20" mask="url(#path-7-outside-6)"/>
<mask id="path-8-outside-7" maskUnits="userSpaceOnUse" x="50" y="16" width="62" height="42" fill="black">
<rect fill="white" x="50" y="16" width="62" height="42"/>
<path d="M64.5001 36.1355C75.6876 29.501 88.4546 26 101.461 26V34.4466C89.9708 34.4466 78.6919 37.5395 68.8085 43.4007L64.5001 36.1355Z"/>
</mask>
<path d="M64.5001 36.1355C75.6876 29.501 88.4546 26 101.461 26V34.4466C89.9708 34.4466 78.6919 37.5395 68.8085 43.4007L64.5001 36.1355Z" fill="#007594"/>
<path d="M64.5001 36.1355C75.6876 29.501 88.4546 26 101.461 26V34.4466C89.9708 34.4466 78.6919 37.5395 68.8085 43.4007L64.5001 36.1355Z" stroke="white" stroke-width="20" mask="url(#path-8-outside-7)"/>
</g>
<defs>
<filter id="filter0_d" x="-2" y="0" width="208" height="200" filterUnits="userSpaceOnUse" color-interpolation-filters="sRGB">
<feFlood flood-opacity="0" result="BackgroundImageFix"/>
<feColorMatrix in="SourceAlpha" type="matrix" values="0 0 0 0 0 0 0 0 0 0 0 0 0 0 0 0 0 0 127 0"/>
<feOffset dy="2"/>
<feGaussianBlur stdDeviation="1"/>
<feColorMatrix type="matrix" values="0 0 0 0 0 0 0 0 0 0 0 0 0 0 0 0 0 0 0.25 0"/>
<feBlend mode="normal" in2="BackgroundImageFix" result="effect1_dropShadow"/>
<feBlend mode="normal" in="SourceGraphic" in2="effect1_dropShadow" result="shape"/>
</filter>
</defs>
</svg>
