<svg width="24" height="24" viewBox="0 0 24 24" fill="none" xmlns="http://www.w3.org/2000/svg">
<path d="M8.75 16.5L6.875 16.5C6.37772 16.5 5.9008 16.3025 5.54917 15.9508C5.19754 15.5992 5 15.1223 5 14.625L5 4.87501C5 4.37772 5.19754 3.90081 5.54917 3.54918C5.9008 3.19755 6.37772 3.00001 6.875 3.00001L18.125 3.00001C18.6223 3.00001 19.0992 3.19755 19.4508 3.54918C19.8024 3.90081 20 4.37772 20 4.875L20 14.625C20 15.1223 19.8024 15.5992 19.4508 15.9508C19.0992 16.3025 18.6223 16.5 18.125 16.5L16.25 16.5" stroke="#FFCDC2" stroke-width="1.5" stroke-linecap="round" stroke-linejoin="round"/>
<path d="M16 11.2598L12.25 7.50977L8.5 11.2598" stroke="#FFCDC2" stroke-width="1.5" stroke-linecap="round" stroke-linejoin="round"/>
<path d="M12.2305 21.7598L12.2305 8.25977" stroke="#FFCDC2" stroke-width="1.5" stroke-linecap="round" stroke-linejoin="round"/>
</svg>
